<svg xmlns="http://www.w3.org/2000/svg" viewBox="0 0 128 128" role="img" aria-labelledby="title desc">
  <title id="title">Jack of All Trades logo</title>
  <desc id="desc">Circular emblem with crossed tools and a bat silhouette.</desc>
  <defs>
    <linearGradient id="bg" x1="0" y1="0" x2="1" y2="1">
      <stop offset="0%" stop-color="#4f46e5"/>
      <stop offset="100%" stop-color="#0ea5e9"/>
    </linearGradient>
    <linearGradient id="metal" x1="0" y1="0" x2="1" y2="1">
      <stop offset="0%" stop-color="#f8fafc"/>
      <stop offset="100%" stop-color="#cbd5e1"/>
    </linearGradient>
  </defs>
  <circle cx="64" cy="64" r="60" fill="url(#bg)"/>
  <path d="M18 50c14-11 24 1 34 2 11 1 21-11 38-4-10 2-15 14-24 16-8 2-15-4-24-5-8-1-13 3-24-9z" fill="#111827" opacity="0.85"/>
  <g stroke="url(#metal)" stroke-width="7" stroke-linecap="round" fill="none">
    <path d="M36 92 L92 36"/>
    <path d="M92 92 L36 36"/>
  </g>
  <g fill="#e2e8f0">
    <circle cx="36" cy="36" r="7"/>
    <circle cx="92" cy="36" r="7"/>
    <rect x="31" y="87" width="10" height="10" rx="2"/>
    <rect x="87" y="87" width="10" height="10" rx="2"/>
  </g>
</svg>
